<svg xmlns="http://www.w3.org/2000/svg" viewBox="0 0 470 470" enable-background="new 0 0 470 470"><path d="M355.772 369.824c-5.092 0-10.173.417-15.18 1.244-14.764-45.447-57.206-76.606-105.593-76.606s-90.83 31.16-105.593 76.606c-5.008-.827-10.09-1.244-15.18-1.244-51.103 0-92.677 41.574-92.677 92.676 0 4.142 3.357 7.5 7.5 7.5s7.5-3.358 7.5-7.5c0-42.83 34.846-77.676 77.676-77.676 6.298 0 12.576.76 18.66 2.26 3.994.983 8.043-1.435 9.062-5.426 10.854-42.508 49.118-72.196 93.05-72.196s82.197 29.688 93.052 72.196c1.02 3.99 5.066 6.41 9.062 5.427 6.084-1.5 12.362-2.26 18.66-2.26 42.83 0 77.676 34.844 77.676 77.675 0 4.142 3.357 7.5 7.5 7.5s7.5-3.358 7.5-7.5c0-51.102-41.574-92.676-92.676-92.676zM357.086 422.154c-4.41 0-8 3.59-8 8s3.59 8 8 8 8-3.59 8-8-3.59-8-8-8zM195.49 361.202c0-4.41-3.59-8-8-8s-8 3.59-8 8 3.59 8 8 8 8-3.59 8-8zM216.065 339.113c0-4.41-3.59-8-8-8s-8 3.59-8 8 3.59 8 8 8 8-3.59 8-8zM108.307 353.792c3.31-2.493 3.97-7.196 1.476-10.503-20.608-27.347-31.5-59.948-31.5-94.22.556-71.824 44.636-140.202 60.78-162.857 6.533 9.136 17.613 25.688 28.47 46.79 1.422 2.768 4.414 4.366 7.498 4.024 3.094-.345 5.652-2.563 6.432-5.575 13.194-50.993 41.408-94.255 53.634-111.388 12.227 17.134 40.44 60.395 53.634 111.388.78 3.012 3.338 5.23 6.43 5.575 3.09.34 6.076-1.257 7.5-4.023 10.855-21.102 21.937-37.655 28.47-46.79 16.148 22.658 60.225 91.027 60.78 162.797 0 34.34-10.895 66.945-31.512 94.294-2.493 3.308-1.833 8.01 1.475 10.504 1.353 1.02 2.937 1.51 4.51 1.51 2.273 0 4.52-1.03 5.994-2.985 22.593-29.972 34.534-65.7 34.534-103.38-.377-48.642-19.38-95-35.256-125.322-17.123-32.703-33.96-53.792-34.67-54.674-1.423-1.772-3.573-2.803-5.846-2.803s-4.424 1.03-5.848 2.803c-.62.77-12.977 16.253-27.22 41.094C278.28 49.735 242.59 4.856 240.94 2.803 239.52 1.03 237.37 0 235.096 0s-4.424 1.03-5.847 2.803c-1.65 2.053-37.338 46.93-57.127 107.247-14.243-24.84-26.6-40.323-27.22-41.094-1.423-1.772-3.573-2.803-5.847-2.803-2.272 0-4.423 1.03-5.847 2.803-.71.882-17.547 21.97-34.67 54.675-15.875 30.325-34.88 76.682-35.256 125.38 0 37.615 11.938 73.338 34.522 103.306 2.494 3.308 7.197 3.968 10.505 1.476zM305.146 389.335c-21.872 10.94-45.44 16.49-70.052 16.49-24.673 0-48.296-5.576-70.212-16.57-3.7-1.856-8.21-.363-10.067 3.34-1.857 3.703-.36 8.21 3.34 10.067 24.024 12.05 49.91 18.162 76.94 18.162 26.96 0 52.786-6.08 76.762-18.074 3.704-1.853 5.205-6.358 3.353-10.063-1.853-3.703-6.356-5.203-10.064-3.352zM330.262 321.573c.834.298 1.686.44 2.523.44 3.08 0 5.968-1.913 7.063-4.98 4.288-12.003 6.463-24.595 6.463-37.483-.46-59.513-42.662-113.056-44.46-115.307-1.41-1.768-3.543-2.804-5.805-2.82-2.25.008-4.41.987-5.848 2.734-.36.44-6.808 8.326-14.678 21.22-12.913-35.678-33.576-61.66-34.58-62.908-1.422-1.773-3.572-2.804-5.846-2.804s-4.424 1.03-5.847 2.803c-1.003 1.247-21.665 27.23-34.577 62.907-7.87-12.894-14.317-20.78-14.68-21.22-1.44-1.752-3.558-2.778-5.867-2.734-2.27.023-4.406 1.072-5.812 2.854-.65.824-16.075 20.517-28.746 49.172-1.675 3.788.038 8.216 3.826 9.892 3.786 1.674 8.217-.038 9.893-3.826 7.252-16.4 15.6-29.85 21.026-37.87 4.173 5.97 10.012 14.99 15.678 26.004 1.423 2.768 4.416 4.363 7.5 4.023 3.092-.345 5.65-2.563 6.43-5.575 7.49-28.948 22.783-53.93 31.18-66.183 8.396 12.232 23.664 37.163 31.173 66.183.78 3.012 3.34 5.23 6.432 5.575 3.077.34 6.076-1.257 7.5-4.023 5.674-11.03 11.523-20.065 15.697-26.035 11.262 16.548 35.088 56.424 35.41 97.994 0 11.104-1.88 21.998-5.588 32.378-1.393 3.9.64 8.192 4.54 9.585zM138.296 237.498c-4.005-1.072-8.113 1.31-9.18 5.312-3.384 12.673-5.146 25.034-5.237 36.798 0 12.772 2.155 25.31 6.407 37.267 1.093 3.072 3.982 4.99 7.066 4.99.834 0 1.683-.14 2.513-.437 3.903-1.388 5.94-5.677 4.554-9.58-3.677-10.338-5.54-21.186-5.54-32.182.08-10.44 1.672-21.54 4.728-32.99 1.068-4-1.31-8.11-5.312-9.178z"/></svg>