<?xml version="1.0" encoding="utf-8"?>
<!-- Generator: Adobe Illustrator 17.0.0, SVG Export Plug-In . SVG Version: 6.00 Build 0)  -->
<!DOCTYPE svg PUBLIC "-//W3C//DTD SVG 1.1//EN" "http://www.w3.org/Graphics/SVG/1.1/DTD/svg11.dtd">
<svg version="1.1" id="Layer_1" xmlns="http://www.w3.org/2000/svg" xmlns:xlink="http://www.w3.org/1999/xlink" x="0px" y="0px"
	 width="1064.198px" height="291.358px" viewBox="0 0 1064.198 291.358" enable-background="new 0 0 1064.198 291.358"
	 xml:space="preserve">
<g>
	<path fill="#4E4E4E" d="M177.452,100.374c-4.748-6.872-10.309-12.599-16.69-17.181c-5.239-3.763-11.045-6.75-17.427-8.959
		c-6.381-2.209-13.338-3.313-20.863-3.313c-8.675,0-16.978,1.595-24.913,4.786c-7.938,3.19-15.014,7.731-21.231,13.622
		c-6.221,5.891-11.168,13.051-14.85,21.477c-3.682,8.43-5.522,17.879-5.522,28.349c0,10.965,1.879,20.74,5.646,29.331
		c3.762,8.59,8.713,15.831,14.849,21.722c6.136,5.891,13.212,10.393,21.231,13.499c8.016,3.11,16.28,4.664,24.79,4.664
		c8.345,0,16.077-1.186,23.195-3.559c7.118-2.37,13.376-5.684,18.776-9.941c5.561-4.253,10.186-9.162,13.868-14.727
		c3.682-5.561,6.174-11.451,7.486-17.672H107.5v-23.809h111.923c0,5.745-0.575,12.265-1.718,19.567
		c-1.147,7.302-3.275,14.393-6.382,21.28c-4.257,9.028-9.614,16.943-16.077,23.751c-6.466,6.807-13.664,12.468-21.599,16.978
		c-7.939,4.511-16.284,7.916-25.035,10.213c-8.756,2.294-17.389,3.444-25.895,3.444c-13.419,0-25.936-2.455-37.553-7.363
		c-11.62-4.909-21.722-11.617-30.312-20.127c-8.59-8.506-15.34-18.531-20.249-30.067c-4.909-11.535-7.363-23.931-7.363-37.185
		c0-13.58,2.493-26.098,7.486-37.553c4.989-11.452,11.82-21.354,20.495-29.699c8.671-8.345,18.815-14.85,30.435-19.513
		c11.617-4.664,24.054-6.995,37.308-6.995c9.818,0,19.268,1.392,28.349,4.173c9.082,2.784,17.427,6.627,25.036,11.535
		c7.608,4.909,14.316,10.72,20.126,17.427c5.806,6.712,10.347,13.99,13.622,21.845H177.452z"/>
	<path fill="#4E4E4E" d="M238.811,96.938h24.053v19.636c3.762-7.854,9.039-13.702,15.832-17.549
		c6.788-3.843,14.765-5.849,23.931-6.014v25.526h-1.718c-24.384,0-36.571,13.254-36.571,39.762v72.161h-25.526V96.938z"/>
	<path fill="#4E4E4E" d="M324.473,171.799c0.326,6.711,1.883,12.602,4.671,17.672c2.784,5.074,6.352,9.327,10.696,12.763
		c4.345,3.437,9.101,6.014,14.263,7.732c5.162,1.719,10.285,2.577,15.371,2.577c9.013,0,16.759-2.001,23.236-6.013
		c6.474-4.008,11.598-9.53,15.367-16.567h26.559c-3.275,7.363-7.16,13.787-11.659,19.267c-4.498,5.484-9.61,10.105-15.333,13.868
		c-5.726,3.766-11.777,6.589-18.158,8.468c-6.382,1.879-13.005,2.822-19.874,2.822c-10.96,0-20.774-2.006-29.441-6.013
		c-8.672-4.008-16.073-9.327-22.209-15.954c-6.137-6.627-10.838-14.151-14.109-22.581c-3.271-8.426-4.905-17.059-4.905-25.895
		c0-9.488,1.756-18.531,5.277-27.122c3.517-8.59,8.426-16.157,14.727-22.703c6.297-6.543,13.745-11.697,22.335-15.463
		c8.591-3.763,17.956-5.646,28.104-5.646c9.653,0,18.692,1.718,27.122,5.154c8.426,3.437,15.831,8.265,22.213,14.481
		c7.854,8.019,13.457,17.059,16.812,27.121c3.353,10.063,4.457,20.74,3.313,32.031H324.473z M413.324,151.919
		c-0.33-4.419-1.638-8.837-3.928-13.255c-2.293-4.418-5.361-8.425-9.204-12.026c-3.847-3.598-8.388-6.504-13.622-8.713
		c-5.238-2.209-11.045-3.23-17.427-3.068c-6.546,0-12.479,1.066-17.795,3.19c-5.319,2.129-9.859,4.951-13.622,8.468
		c-3.766,3.521-6.75,7.486-8.959,11.904c-2.209,4.418-3.479,8.921-3.804,13.5H413.324z"/>
	<path fill="#4E4E4E" d="M474.683,171.799c0.326,6.711,1.883,12.602,4.671,17.672c2.784,5.074,6.352,9.327,10.696,12.763
		c4.345,3.437,9.101,6.014,14.263,7.732c5.162,1.719,10.285,2.577,15.371,2.577c9.013,0,16.759-2.001,23.236-6.013
		c6.475-4.008,11.598-9.53,15.367-16.567h26.559c-3.275,7.363-7.16,13.787-11.658,19.267c-4.498,5.484-9.611,10.105-15.334,13.868
		c-5.725,3.766-11.777,6.589-18.158,8.468c-6.381,1.879-13.004,2.822-19.874,2.822c-10.96,0-20.774-2.006-29.441-6.013
		c-8.672-4.008-16.073-9.327-22.209-15.954c-6.137-6.627-10.838-14.151-14.109-22.581c-3.271-8.426-4.905-17.059-4.905-25.895
		c0-9.488,1.757-18.531,5.277-27.122c3.517-8.59,8.426-16.157,14.727-22.703c6.297-6.543,13.745-11.697,22.336-15.463
		c8.59-3.763,17.955-5.646,28.103-5.646c9.653,0,18.692,1.718,27.122,5.154c8.426,3.437,15.832,8.265,22.213,14.481
		c7.855,8.019,13.457,17.059,16.812,27.121c3.354,10.063,4.457,20.74,3.315,32.031H474.683z M563.535,151.919
		c-0.33-4.419-1.639-8.837-3.928-13.255c-2.293-4.418-5.361-8.425-9.205-12.026c-3.846-3.598-8.387-6.504-13.621-8.713
		c-5.238-2.209-11.045-3.23-17.427-3.068c-6.546,0-12.48,1.066-17.795,3.19c-5.319,2.129-9.859,4.951-13.622,8.468
		c-3.766,3.521-6.75,7.486-8.959,11.904c-2.209,4.418-3.479,8.921-3.804,13.5H563.535z"/>
	<path fill="#4E4E4E" d="M608.693,96.938h24.053v20.618c3.271-6.873,8.629-12.722,16.076-17.55
		c7.445-4.824,17.141-7.156,29.086-6.995c10.635,0.165,19.428,2.006,26.385,5.522c6.953,3.521,12.477,8.1,16.568,13.745
		c4.088,5.646,6.953,11.988,8.59,19.021c1.635,7.038,2.455,13.99,2.455,20.863v78.297h-25.527v-72.563
		c0-6.067-0.617-11.602-1.848-16.603c-1.23-5.001-3.24-9.346-6.033-13.035c-2.791-3.689-6.445-6.519-10.959-8.487
		c-4.519-1.967-10.057-2.952-16.623-2.952c-12.643,0.164-21.92,3.812-27.83,10.945c-5.914,7.133-8.867,16.521-8.867,28.164v74.531
		h-25.525V96.938z"/>
	<path fill="#4E4E4E" d="M760.128,48.832h25.527V149.71l52.279-52.772h30.926L809.462,155.6l61.117,74.86H840.88l-55.225-68.725
		v68.725h-25.527V48.832z"/>
</g>
<path fill="#4E4E4E" d="M999.727,112.795c26.702,31.688,22.662,79.016-9.022,105.716c-31.685,26.701-79.016,22.66-105.717-9.02
	c-26.704-31.684-22.663-79.015,9.024-105.716C925.693,77.07,973.026,81.112,999.727,112.795z"/>
<path fill="#FFFFFF" d="M984.227,116.269c23.694,28.118,20.109,70.118-8.006,93.812c-28.117,23.693-70.118,20.108-93.813-8.006
	c-23.695-28.116-20.11-70.117,8.009-93.812C918.531,84.566,960.535,88.152,984.227,116.269z"/>
<text transform="matrix(1 0 0 1 995.3872 102.0386)" fill="#4E4E4E" font-family="'AvantGardeITCbyBT-Book'" font-size="15.3687">TM</text>
<path fill="#FFFFFF" d="M913.339,202.142c0,0,24.66,13.367,49.995,8.497C963.334,210.639,941.221,219.289,913.339,202.142z"/>
<g>
	<path fill="#FFFFFF" d="M989.207,131.565c-6.827-14.35-18.35-24.943-31.847-30.855c-0.593-0.068-1.177-0.391-1.734-0.742
		c-15.912-6.417-34.357-6.413-51.07,1.544c-31.677,15.076-45.135,52.976-30.058,84.653c7.019,14.745,18.988,25.536,32.968,31.343
		c0.134-0.007,0.275,0.011,0.426,0.075c0.065,0.027,0.103,0.07,0.153,0.104c0.016,0.006,0.028,0.003,0.045,0.01l0,0
		c0.047,0.012,0.092,0.007,0.14,0.029c0.087,0.033,0.141,0.09,0.205,0.139c0.13-0.011,0.265-0.002,0.412,0.061
		c0.139,0.057,0.248,0.136,0.334,0.228c0.082,0.008,0.163,0.012,0.253,0.05c0.076,0.034,0.124,0.084,0.185,0.128
		c0.028,0.011,0.057,0.02,0.086,0.032c0.172-0.043,0.355-0.047,0.562,0.04c0.067,0.027,0.118,0.066,0.17,0.104
		c0.091,0.011,0.185,0.016,0.281,0.057c0.169,0.07,0.284,0.176,0.372,0.292c0.683,0.238,1.37,0.456,2.062,0.665
		c0.137-0.009,0.279,0.009,0.433,0.073c0.055,0.023,0.088,0.062,0.135,0.092c0.076,0.022,0.153,0.044,0.229,0.066
		c0.11-0.012,0.227,0.008,0.35,0.045c0.128-0.021,0.268-0.015,0.415,0.038c0.132-0.005,0.27,0.013,0.417,0.076
		c0.012,0.004,0.015,0.012,0.025,0.016c0.07,0.011,0.143,0.025,0.219,0.057c0.129,0.056,0.227,0.13,0.31,0.213
		c0.09,0.008,0.179,0.025,0.276,0.067c0.015,0.005,0.025,0.014,0.036,0.023c0.015,0.004,0.027,0.001,0.041,0.007
		c0.023,0.01,0.032,0.026,0.051,0.036c0.057,0.013,0.112,0.023,0.167,0.039c0.171-0.04,0.355-0.046,0.559,0.04
		c0.086,0.037,0.142,0.091,0.205,0.142c0.235,0.054,0.469,0.112,0.705,0.165c0.07,0.005,0.148,0.026,0.222,0.047
		c0.164-0.034,0.34-0.038,0.535,0.046c0.042,0.02,0.066,0.049,0.104,0.072c0.095,0.006,0.191,0.022,0.296,0.067
		c0.013,0.006,0.019,0.015,0.032,0.021c0.047,0.011,0.096,0.019,0.144,0.027c0.166-0.038,0.347-0.041,0.55,0.043
		c0.051,0.023,0.08,0.059,0.122,0.086c12.891,2.535,26.655,1.172,39.428-4.908c3.512-1.672,6.785-3.639,9.835-5.831
		c-0.018-0.05-0.023-0.102-0.03-0.151c-0.139,0.071-0.308,0.09-0.496,0.01c-0.205-0.087-0.308-0.242-0.345-0.405
		c-0.123,0.278-0.422,0.478-0.783,0.325c-0.244-0.102-0.344-0.298-0.355-0.5c-0.145,0.221-0.406,0.362-0.723,0.23
		c-0.733-0.312-0.253-1.45,0.482-1.139c0.245,0.103,0.345,0.298,0.354,0.5c0.146-0.222,0.407-0.362,0.722-0.228
		c0.206,0.086,0.307,0.24,0.344,0.404c0.124-0.278,0.422-0.478,0.784-0.324c0.184,0.077,0.292,0.209,0.338,0.356
		c0.184-0.137,0.427-0.191,0.704-0.075c0.083,0.036,0.141,0.089,0.199,0.138C993.753,191.737,1002.396,159.27,989.207,131.565z
		 M962.126,209.401c-0.041-0.02-0.068-0.048-0.103-0.071c-0.129,0.05-0.278,0.06-0.443-0.009c-0.731-0.312-0.251-1.447,0.482-1.138
		c0.042,0.019,0.067,0.048,0.104,0.071c0.127-0.051,0.278-0.062,0.442,0.007C963.342,208.572,962.861,209.708,962.126,209.401z
		 M965.027,209.772c-0.054-0.023-0.087-0.059-0.126-0.089c-0.144,0.084-0.321,0.112-0.521,0.027
		c-0.181-0.077-0.287-0.206-0.334-0.35c-0.151,0.198-0.4,0.314-0.697,0.189c-0.735-0.311-0.252-1.448,0.481-1.14
		c0.183,0.077,0.29,0.206,0.335,0.351c0.151-0.198,0.4-0.314,0.695-0.188c0.055,0.024,0.088,0.057,0.13,0.089
		c0.143-0.084,0.32-0.112,0.518-0.028C966.242,208.943,965.76,210.081,965.027,209.772z"/>
	<path fill="#89C240" d="M952.468,102.301c0,0,9.309,55.426-34.457,48.953c0,0-40.53-5.703-49.261,12.778
		C861.52,138.778,893.253,84.508,952.468,102.301z"/>
	<path fill="#68B5E5" d="M872.638,167.845c0,0,43.687-35.307,59.444,6.036c0,0,12.907,36.646,36.174,36.46
		C944.274,230.53,886.066,228.194,872.638,167.845z"/>
	<path fill="#89C240" d="M955.95,100.163c-0.239-0.143-0.479-0.292-0.708-0.438c-57.648-20.462-88.278,33.923-86.198,52.764
		c10.537-15.825,49.176-3.165,49.176-3.165C960.091,157.978,956.255,103.818,955.95,100.163z"/>
	<path fill="#68B5E5" d="M930.487,174.969c-13.807-42.034-61.588-8.131-61.588-8.131c5.192,29.878,22.812,45.15,41.304,51.553
		c0.021,0.007,0.042,0.004,0.063,0.014c0.011,0.004,0.014,0.014,0.025,0.018c19.186,6.614,39.291,3.693,47.425-2.384
		C938.747,214.786,930.487,174.969,930.487,174.969z"/>
	<path fill="#FFFFFF" d="M953.776,99.092c-0.245-0.157-0.487-0.327-0.74-0.429c-0.731-0.295-1.541-0.415-2.317-0.564
		c-26.335,6.673-33.496,36.164-33.496,36.164C927.303,107.365,944.899,100.721,953.776,99.092z"/>
	<path fill="#FFFFFF" d="M954.802,99.472c-0.09-0.015-0.179-0.027-0.269-0.048l-11.526,30.699l14.111-29.445
		C956.308,100.489,955.516,99.878,954.802,99.472z"/>
	<path fill="#F89B34" d="M968.963,204.783c0,0-15.477-6.224-25.677-17.25c-0.915-0.985-1.781-2.014-2.596-3.078
		c-7.13-9.314-7.862-19.967,3.816-34.339c0,0,25.317-27.841,13.032-49.231C985.289,110.022,1014.488,162.947,968.963,204.783z"/>
	<path fill="#FFFFFF" d="M946.494,96.965c-0.698-0.264-1.33-0.699-2.068-0.82c-0.234-0.039-0.376-0.179-0.449-0.349
		c-38.315,0.65-53.07,47.167-53.07,47.167C908.461,99.619,936.777,96.624,946.494,96.965z"/>
	<path fill="#FFFFFF" d="M913.772,95.784c0,0,17.58,18.15,40.669,20.81C954.441,116.594,933.103,118.054,913.772,95.784z"/>
	<path fill="#F89B34" d="M970.223,209.485c0,0-15.294-7.523-24.991-18.994c-0.863-1.027-1.691-2.094-2.456-3.194
		c-6.704-9.623-8.89-21.919,3.421-35.754c0,0,30.272-27.149,21.825-44.185C993.805,121.047,1012.577,177.161,970.223,209.485z"/>
	<path fill="#FFFFFF" d="M900.477,102.533c-0.084,0.086-0.193,0.141-0.318,0.157c15.979,21.01,35.19,22.115,35.19,22.115
		C918.586,120.716,905.904,108.54,900.477,102.533z"/>
	<path fill="#FFFFFF" d="M944.535,182.775c-10.193,26.602-27.622,33.224-36.578,34.852c0.034,0.019,0.06,0.042,0.089,0.061
		c0.016,0.005,0.028,0.003,0.045,0.01l0,0c0.047,0.012,0.092,0.007,0.14,0.029c0.087,0.034,0.143,0.091,0.206,0.14
		c0.13-0.011,0.264-0.003,0.411,0.061c0.133,0.056,0.235,0.131,0.318,0.216c0.086,0.009,0.173,0.022,0.268,0.061
		c0.102,0.044,0.174,0.107,0.246,0.17c0.177-0.052,0.37-0.062,0.586,0.03c0.072,0.029,0.135,0.067,0.19,0.105
		c0.087,0.014,0.169,0.016,0.261,0.055c0.025,0.011,0.038,0.03,0.062,0.042C937.117,212.102,944.535,182.775,944.535,182.775z"/>
	<polygon fill="#FFFFFF" points="906.97,217.237 918.717,186.721 904.359,216.041 	"/>
	<path fill="#FFFFFF" d="M970.916,174.268c-18.007,43.528-46.622,46.036-56.131,45.574c0.111,0.004,0.225,0.019,0.345,0.07
		c0.01,0.003,0.014,0.01,0.021,0.013c0.073,0.01,0.146,0.028,0.224,0.06c0.137,0.058,0.241,0.135,0.325,0.223
		c0.083,0.008,0.169,0.017,0.261,0.058c0.016,0.006,0.025,0.016,0.042,0.024c0.012,0.003,0.022,0.002,0.035,0.006
		c0.058,0.026,0.09,0.063,0.138,0.096c0.187-0.065,0.401-0.081,0.639,0.02c0.104,0.045,0.174,0.108,0.246,0.169
		c0.008,0.002,0.013,0.002,0.019,0.004c0.049,0.021,0.078,0.056,0.119,0.082c0.092,0.009,0.182,0.016,0.28,0.057
		c0.017,0.007,0.025,0.02,0.041,0.027c0.133-0.026,0.273-0.03,0.429,0.014c0.163-0.032,0.338-0.037,0.533,0.047
		c0.044,0.02,0.068,0.052,0.108,0.076c0.093,0.005,0.188,0.02,0.291,0.063c0.011,0.005,0.017,0.013,0.027,0.019
		C956.172,219.484,970.916,174.268,970.916,174.268z"/>
	<path fill="#FFFFFF" d="M955.906,217.668c-4.849-0.693-26.054-4.474-40.444-19.034c0,0,11.706,17.208,40.299,19.088
		C955.807,217.697,955.856,217.684,955.906,217.668z"/>
	<path fill="#FFFFFF" d="M961.313,208.452c-8.924-1.729-21.761-5.638-32.038-14.56c0,0,10.164,12.551,32.164,15.333
		C961.187,209.027,961.172,208.701,961.313,208.452z"/>
</g>
</svg>
