<svg xmlns="http://www.w3.org/2000/svg" viewBox="0 0 297 297" enable-background="new 0 0 297 297" width="512" height="512"><g fill="#fff"><path d="M118.134 15.46H84.25l-7.99 33.197h39.21zM165.537 15.46h-34.07l-2.663 33.197H168.2zM111.504 98.094l2.858-35.636H72.94L64.36 98.094zM186.603 111.897l3.69 45.972h56.735l-11.065-45.973zM49.976 157.87h56.732l3.688-45.973H61.04zM59.243 62.458H31.63L18.265 98.094h32.4zM220.74 48.657l-7.99-33.198h-33.886l2.664 33.197zM169.307 62.458h-41.61l-2.858 35.636h47.324zM260.196 48.657l-10.17-27.12c-1.37-3.655-4.867-6.078-8.773-6.078h-14.807l7.99 33.197h25.76zM70.555 15.46h-14.81c-3.904 0-7.4 2.422-8.77 6.078l-10.17 27.12h25.76l7.99-33.2zM173.272 111.897h-49.54l-3.688 45.972h56.914zM246.334 98.094h32.4L265.37 62.458H237.76zM185.496 98.094h47.145l-8.577-35.636h-41.427zM287.63 157.87c3.074 0 5.952-1.508 7.702-4.033 1.75-2.526 2.15-5.75 1.07-8.627l-12.49-33.313h-34.256l11.063 45.973h26.91zM36.278 157.87l11.066-45.974H13.09L.596 145.21c-1.08 2.877-.68 6.1 1.07 8.627 1.75 2.525 4.63 4.032 7.702 4.032h26.908zM30.918 272.172c0 5.174 4.195 9.37 9.37 9.37h216.425c5.174 0 9.37-4.196 9.37-9.37V170.985H30.917v101.187zm102.123-39.35c-3.79 0-7.205-2.283-8.655-5.784-1.45-3.5-.647-7.53 2.03-10.21l30.92-30.92c3.658-3.656 9.59-3.656 13.25 0 3.658 3.66 3.658 9.593 0 13.252l-14.925 14.924h8.3c3.79 0 7.205 2.282 8.655 5.783 1.45 3.5.648 7.53-2.03 10.21l-30.92 30.92c-1.83 1.827-4.225 2.743-6.624 2.743-2.397 0-4.794-.916-6.624-2.744-3.66-3.66-3.66-9.592 0-13.25l14.924-14.924h-8.3z"/></g></svg>