<svg xmlns="http://www.w3.org/2000/svg" width="494.444" height="600" viewBox="0 0 494.444 600"><path fill="#0A0B0D" d="M253.925 274.305c4.654 12.3-1.546 26.05-13.846 30.696-12.308 4.647-26.046-1.567-30.69-13.863-4.65-12.29 1.543-26.033 13.846-30.687 12.305-4.645 26.042 1.554 30.69 13.855zM242.75 254.792c40.06-105.976-6.185-210.79-6.185-210.79s-50.8 102.772-15.296 210.436c7.24-2.664 14.818-2.307 21.48.354zM452.96 370.34s-78.104-83.825-191.307-88.777c.293 7.626-2.316 14.973-7.205 20.687 84.857 74.21 198.512 68.09 198.512 68.09zM203.456 293.38c-.006-.016-.003-.033-.014-.033-105.947 36.515-157.29 137.127-157.29 137.127s111.438-25.437 172.566-120.58c-6.78-3.236-12.398-8.936-15.262-16.515z"/></svg>